/* XPM */
static char * team_logo_xpm[] = {
"184 32 224 2",
"  	c None",
". 	c #000000",
"+ 	c #FFFFFF",
"@ 	c #E0E0E0",
"# 	c #383838",
"$ 	c #8F8F8F",
"% 	c #979797",
"& 	c #DFDFDF",
"* 	c #F8F8F8",
"= 	c #1E1E1E",
"- 	c #A0A0A0",
"; 	c #787878",
"> 	c #CECECE",
", 	c #D5D5D5",
"' 	c #797979",
") 	c #9F9F9F",
"! 	c #FF00D8",
"~ 	c #1D0018",
"{ 	c #FD00D6",
"] 	c #8F0079",
"^ 	c #900079",
"/ 	c #606060",
"( 	c #B8B8B8",
"_ 	c #0F0F0F",
": 	c #FDFDFD",
"< 	c #F9F9F9",
"[ 	c #F6F6F6",
"} 	c #FEFEFE",
"| 	c #141414",
"1 	c #B9B9B9",
"2 	c #5F5F5F",
"3 	c #FCFCFC",
"4 	c #2A2A2A",
"5 	c #7B0068",
"6 	c #7A0067",
"7 	c #E400C1",
"8 	c #020001",
"9 	c #E500C1",
"0 	c #202020",
"a 	c #F3F3F3",
"b 	c #040404",
"c 	c #4B4B4B",
"d 	c #C4C4C4",
"e 	c #BEBEBE",
"f 	c #515151",
"g 	c #F4F4F4",
"h 	c #1F1F1F",
"i 	c #AEAEAE",
"j 	c #DA00B8",
"k 	c #D900B7",
"l 	c #E800C4",
"m 	c #3F0035",
"n 	c #400036",
"o 	c #8A8A8A",
"p 	c #868686",
"q 	c #808080",
"r 	c #393939",
"s 	c #DEDEDE",
"t 	c #363636",
"u 	c #3A0031",
"v 	c #390030",
"w 	c #94007D",
"x 	c #96007F",
"y 	c #97007F",
"z 	c #93007C",
"A 	c #C8C8C8",
"B 	c #474747",
"C 	c #424242",
"D 	c #CDCDCD",
"E 	c #9E9E9E",
"F 	c #ABABAB",
"G 	c #BDBDBD",
"H 	c #990081",
"I 	c #FA00D3",
"J 	c #980080",
"K 	c #3D0033",
"L 	c #EA00C6",
"M 	c #030002",
"N 	c #040003",
"O 	c #3C0032",
"P 	c #0B0B0B",
"Q 	c #FBFBFB",
"R 	c #0C0C0C",
"S 	c #090909",
"T 	c #FAFAFA",
"U 	c #0E0E0E",
"V 	c #5E5E5E",
"W 	c #2C2C2C",
"X 	c #454545",
"Y 	c #080006",
"Z 	c #F000CB",
"` 	c #740062",
" .	c #EF00CA",
"..	c #010000",
"+.	c #E300C0",
"@.	c #46003B",
"#.	c #47003C",
"$.	c #E200BF",
"%.	c #C9C9C9",
"&.	c #C6C6C6",
"*.	c #494949",
"=.	c #050505",
"-.	c #A8A8A8",
";.	c #CBCBCB",
">.	c #010101",
",.	c #58004A",
"'.	c #570049",
").	c #8D0077",
"!.	c #9D0084",
"~.	c #9E0085",
"{.	c #8C0076",
"].	c #848484",
"^.	c #888888",
"/.	c #878787",
"(.	c #3A3A3A",
"_.	c #282828",
":.	c #555555",
"<.	c #B7009B",
"[.	c #7C0069",
"}.	c #B6009A",
"|.	c #36002D",
"1.	c #EE00C9",
"2.	c #0C000A",
"3.	c #35002C",
"4.	c #C2C2C2",
"5.	c #4C4C4C",
"6.	c #4A4A4A",
"7.	c #C5C5C5",
"8.	c #7A7A7A",
"9.	c #9D9D9D",
"0.	c #A4A4A4",
"a.	c #D8D8D8",
"b.	c #030303",
"c.	c #1A0016",
"d.	c #FC00D5",
"e.	c #FE00D7",
"f.	c #1E0019",
"g.	c #1F001A",
"h.	c #190015",
"i.	c #DD00BB",
"j.	c #9B0083",
"k.	c #DC00BA",
"l.	c #080808",
"m.	c #101010",
"n.	c #BABABA",
"o.	c #5D5D5D",
"p.	c #262626",
"q.	c #646464",
"r.	c #760063",
"s.	c #BD00A0",
"t.	c #BE00A0",
"u.	c #750063",
"v.	c #860071",
"w.	c #850070",
"x.	c #3F3F3F",
"y.	c #414141",
"z.	c #1D1D1D",
"A.	c #A1A1A1",
"B.	c #E3E3E3",
"C.	c #D500B4",
"D.	c #5E004F",
"E.	c #5F0050",
"F.	c #D400B3",
"G.	c #2F0027",
"H.	c #2E0026",
"I.	c #7E7E7E",
"J.	c #909090",
"K.	c #7F7F7F",
"L.	c #DDDDDD",
"M.	c #232323",
"N.	c #737373",
"O.	c #F300CD",
"P.	c #0B0009",
"Q.	c #F400CE",
"R.	c #34002C",
"S.	c #D600B5",
"T.	c #505050",
"U.	c #525252",
"V.	c #ECECEC",
"W.	c #7F006B",
"X.	c #7E006A",
"Y.	c #F5F5F5",
"Z.	c #131313",
"`.	c #151515",
" +	c #BFBFBF",
".+	c #5C5C5C",
"++	c #212121",
"@+	c #060005",
"#+	c #ED00C8",
"$+	c #EC00C7",
"%+	c #280021",
"&+	c #270021",
"*+	c #D3D3D3",
"=+	c #D6D6D6",
"-+	c #1C1C1C",
";+	c #9A9A9A",
">+	c #530046",
",+	c #DE00BC",
"'+	c #DF00BC",
")+	c #520045",
"!+	c #D000B0",
"~+	c #CF00AF",
"{+	c #949494",
"]+	c #989898",
"^+	c #DCDCDC",
"/+	c #B20096",
"(+	c #80006C",
"_+	c #81006D",
":+	c #B10095",
"<+	c #5A5A5A",
"[+	c #9C9C9C",
"}+	c #160012",
"|+	c #FB00D4",
"1+	c #22001C",
"2+	c #23001D",
"3+	c #150011",
"4+	c #171717",
"5+	c #1B1B1B",
"6+	c #71005F",
"7+	c #C200A4",
"8+	c #C300A5",
"9+	c #70005E",
"0+	c #630053",
"a+	c #640054",
"    . . . . . . . . . . . . . . . . . . . . . . . . . . . . . . . . . . . . . . . . . . . . . . . . . . . . . . . . . . . . . . . . . . . . . . . . . . . . . . . . . . . . . . . . . . . . . . . . . . . . . . . . . . . . . . . . . . . . . . . . . . . . . . . . . . . . . . . . . . . . . . . . . . . . . . . . . . . . . . . . . . . . . . . . . . . . . . . . . . . . . . ",
"  . . . . . . . . . . . . . . . . . . . . . . . . . . . . . . . . . . . . . . . . . . . . . . . . . . . . . . . . . . . . . . . . . . . . . . . . . . . . . . . . . . . . . . . . . . . . . . . . . . . . . . . . . . . . . . . . . . . . . . . . . . . . . . . . . . . . . . . . . . . . . . . . . . . . . . . . . . . . . . . . . . . . . . . . . . . . . . . . . . . . . . . ",
"  . . . . . . . . . . . . . . . . . . . . . . . . . . . . . . . . . . . . . . . . . . . . . . . . . . . . . . . . . . . . . . . . . . . . . . . . . . . . . . . . . . . . . . . . . . . . . . . . . . . . . . . . . . . . . . . . . . . . . . . . . . . . . . . . . . . . . . . . . . . . . . . . . . . . . . . . . . . . . . . . . . . . . . . . . . . . . . . . . . . . . . . ",
"    . . . . . . . . . . . . . . . . . . . . . . . . . . . . . . . . . . . . . . . . . . . . . . . . . . . . . . . . . . . . . . . . . . . . . . . . . . . . . . . . . . . . . . . . . . . . . . . . . . . . . . . . . . . . . . . . . . . . . . . . . . . . . . . . . . . . . . . . . . . . . . . . . . . . . . . . . . . . . . . . . . . . . . . . . . . . . . . . . . . . . . ",
". . . . . . . . . . . . . . . . . . . . . . . . . . . . . . . . . . . . . . . . . . . . . . . . . . . . . . . . . . . . . . . . . . . . . . . . . . . . . . . . . . . . . . . . . . . . . . . . . . . . . . . . . . . . . . . . . . . . . . . . . . . . . . . . . . . . . . . . . . . . . . . . . . . . . . . . . . . . . . . . . . . . . . . . . . . . . . . . . . . . . . . . ",
". . . . . . . . . . . . . . . . . . . . . . . . . . . . . . . . . . . . . . . . . . . . . . . . . . . . . . . . . . . . . . . . . . . . . . . . . . . . . . . . . . . . . . . . . . . . . . . . . . . . . . . . . . . . . . . . . . . . . . . . . . . . . . . . . . . . . . . . . . . . . . . . . . . . . . . . . . . . . . . . . . . . . . . . . . . . . . . . . . . . . . . . ",
". . . . . . . . . . . . . . . . . + + + + + + + + + + + + + + + + + @ + + # . . . . . . $ + + % . . . . . . # + + & . . . + + + . . . . . + + + * = . . . . . . + + + . . . . . . . . . . . . . . . . . . . . . . . . . . . . . . . . . . . . . . . . . . . . . . . . . . . . . . . . . . . . . . . . . . . . . . . . . . . . . . . . . . . . . . . . . . . . . . . . . . . . . ",
". . . . . . . . . . . . . . . . . + + + + + + + + + + + + + + + + + - + + ; . . . . . . > + + , . . . . . . ' + + ) . . . + + + . . . . . + + + + ) . . . . . . + + + . . . . . . . . ! ! ! ! ! ! ! ! ! ! ! ! ! ! ! ! ! . ! ! ! ! ! ! ! ! ! ! ! ! . . . . . . . . ~ { ! { ~ . . . . . . . . . ! ! ! ! ! ] . . . . . ^ ! ! ! ! ! . . . . . . . . . . . . . . . . . . . . . . . . ",
". . . . . . . . . . . . . . . . . . . . . . . . + + + . . . . . . . / + + ( . . . . . _ : < [ } | . . . . . 1 + + 2 . . . + + + . . . . . + + + + 3 4 . . . . . + + + . . . . . . . . ! ! ! ! ! ! ! ! ! ! ! ! ! ! ! ! ! . ! ! ! ! ! ! ! ! ! ! ! ! . . . . . . . . 5 ! ! ! 6 . . . . . . . . . ! ! ! ! ! 7 8 . . . 8 9 ! ! ! ! ! . . . . . . . . . . . . . . . . . . . . . . . . ",
". . . . . . . . . . . . . . . . . . . . . . . . + + + . . . . . . . 0 + + a b . . . . c + d e + f . . . . b g + + h . . . + + + . . . . . + + + + + i . . . . . + + + . . . . . . . . . . . . . . . ! ! ! . . . . . . . . ! ! ! . . . . . . . . . . . . . . . . . j ! ! ! k . . . . . . . . . ! ! ! l ! ! m . . . n ! ! l ! ! ! . . . . . . . . . . . . . . . . . . . . . . . . ",
". . . . . . . . . . . . . . . . . . . . . . . . + + + . . . . . . . . @ + + # . . . . o + p q + $ . . . . r + + s . . . . + + + . . . . . + + + } + + t . . . . + + + . . . . . . . . . . . . . . . ! ! ! . . . . . . . . ! ! ! . . . . . . . . . . . . . . . . u ! ! ! ! ! v . . . . . . . . ! ! ! w ! ! x . . . y ! ! z ! ! ! . . . . . . . . . . . . . . . . . . . . . . . . ",
". . . . . . . . . . . . . . . . . . . . . . . . + + + . . . . . . . . - + + ; . . . . A + B C + D . . . . ' + + E . . . . + + + . . . . . + + + F + + G . . . . + + + . . . . . . . . . . . . . . . ! ! ! . . . . . . . . ! ! ! . . . . . . . . . . . . . . . . H ! ! I ! ! J . . . . . . . . ! ! ! K ! ! L M . N L ! ! O ! ! ! . . . . . . . . . . . . . . . . . . . . . . . . ",
". . . . . . . . . . . . . . . . . . . . . . . . + + + . . . . . . . . / + + ( . . . P Q Q R S T 3 U . . . 1 + + V . . . . + + + . . . . . + + + W : + + X . . . + + + . . . . . . . . . . . . . . . ! ! ! . . . . . . . . ! ! ! . . . . . . . . . . . . . . . Y Z ! ! ` ! !  .Y . . . . . . . ! ! ! ..+.! ! @.. #.! ! $...! ! ! . . . . . . . . . . . . . . . . . . . . . . . . ",
". . . . . . . . . . . . . . . . . . . . . . . . + + + . . . . . . . . 0 + + a b . . X + %.. . &.+ *.. . =.g + + = . . . . + + + . . . . . + + + . -.+ + ;.>.. . + + + . . . . . . . . . . . . . . . ! ! ! . . . . . . . . ! ! ! . . . . . . . . . . . . . . . ,.! ! k ..j ! ! '.. . . . . . . ! ! ! . ).! ! !.. ~.! ! {.. ! ! ! . . . . . . . . . . . . . . . . . . . . . . . . ",
". . . . . . . . . . . . . . . . . . . . . . . . + + + . . . . . . . . . @ + + r . . ].+ o . . ^.+ /.. . (.+ + s . . . . . + + + . . . . . + + + . _.: + + :.. . + + + . . . . . . . . . . . . . . . ! ! ! . . . . . . . . ! ! ! . . . . . . . . . . . . . . . <.! ! 5 . [.! ! }.. . . . . . . ! ! ! . |.! ! 1.2. .! ! 3.. ! ! ! . . . . . . . . . . . . . . . . . . . . . . . . ",
". . . . . . . . . . . . . . . . . . . . . . . . + + + . . . . . . . . . - + + ' . . 4.+ 5.. . 6.+ 7.. . 8.+ + 9.. . . . . + + + . . . . . + + + . . 0.+ + a.b.. + + + . . . . . . . . . . . . . . . ! ! ! . . . . . . . . ! ! ! ! ! ! ! ! ! ! ! . . . . . . c.d.! e.f.. g.e.! d.h.. . . . . . ! ! ! . . i.! ! j.! ! k.. . ! ! ! . . . . . . . . . . . . . . . . . . . . . . . . ",
". . . . . . . . . . . . . . . . . . . . . . . . + + + . . . . . . . . . / + + 1 . l.* : m.. . U : < S . n.+ + o.. . . . . + + + . . . . . + + + . . p.3 + + q.. + + + . . . . . . . . . . . . . . . ! ! ! . . . . . . . . ! ! ! ! ! ! ! ! ! ! ! . . . . . . r.! ! s.. . . t.! ! u.. . . . . . ! ! ! . . v.! ! ! ! ! w.. . ! ! ! . . . . . . . . . . . . . . . . . . . . . . . . ",
". . . . . . . . . . . . . . . . . . . . . . . . + + + . . . . . . . . . 0 + + g b x.+ > . . . . > + y.=.g + + z.. . . . . + + + . . . . . + + + . . . A.+ + B.l.+ + + . . . . . . . . . . . . . . . ! ! ! . . . . . . . . ! ! ! . . . . . . . . . . . . . . C.! ! D.. . . E.! ! F.. . . . . . ! ! ! . . G.! ! ! ! ! H.. . ! ! ! . . . . . . . . . . . . . . . . . . . . . . . . ",
". . . . . . . . . . . . . . . . . . . . . . . . + + + . . . . . . . . . . @ + + r I.+ $ . . . . J.+ K.(.+ + L.. . . . . . + + + . . . . . + + + . . . M.Q + + N.+ + + . . . . . . . . . . . . . . . ! ! ! . . . . . . . . ! ! ! . . . . . . . . . . . . . 3.! ! O.P.. . . 2.Q.! ! R.. . . . . ! ! ! . . . S.! ! ! S.. . . ! ! ! . . . . . . . . . . . . . . . . . . . . . . . . ",
". . . . . . . . . . . . . . . . . . . . . . . . + + + . . . . . . . . . . - + + ' G + T.. . . . U.+ G 8.+ + 9.. . . . . . + + + . . . . . + + + . . . . E + + V.+ + + . . . . . . . . . . . . . . . ! ! ! . . . . . . . . ! ! ! . . . . . . . . . . . . . w ! ! ! ! ! ! ! ! ! ! ! z . . . . . ! ! ! . . . W.! ! ! X.. . . ! ! ! . . . . . . . . . . . . . . . . . . . . . . . . ",
". . . . . . . . . . . . . . . . . . . . . . . . + + + . . . . . . . . . . / + + e Y.} Z.. . . . `.+ Y. ++ + .+. . . . . . + + + . . . . . + + + . . . . ++T + + + + + . . . . . . . . . . . . . . . ! ! ! . . . . . . . . ! ! ! . . . . . . . . . . . . @+#+! ! ! ! ! ! ! ! ! ! ! $+@+. . . . ! ! ! . . . %+! ! ! &+. . . ! ! ! . . . . . . . . . . . . . . . . . . . . . . . . ",
". . . . . . . . . . . . . . . . . . . . . . . . + + + . . . . . . . . . . 0 + + + + *+. . . . . . =++ + + + -+. . . . . . + + + . . . . . + + + . . . . . ;++ + + + + . . . . . . . . . . . . . . . ! ! ! . . . . . . . . ! ! ! . . . . . . . . . . . . >+! ! ,+... . . . . ..'+! ! )+. . . . ! ! ! . . . . !+! ~+. . . . ! ! ! . . . . . . . . . . . . . . . . . . . . . . . . ",
". . . . . . . . . . . . . . . . . . . . . . . . + + + . . . . . . . . . . . @ + + + {+. . . . . . ]++ + + ^+. . . . . . . + + + . . . . . + + + . . . . . h < + + + + . . . . . . . . . . . . . . . ! ! ! . . . . . . . . ! ! ! . . . . . . . . . . . . /+! ! (+. . . . . . . _+! ! :+. . . . ! ! ! . . . . . . . . . . . ! ! ! . . . . . . . . . . . . . . . . . . . . . . . . ",
". . . . . . . . . . . . . . . . . . . . . . . . + + + . . . . . . . . . . . - + + + :.. . . . . . <++ + + [+. . . . . . . + + + . . . . . + + + . . . . . . % + + + + . . . . . . . . . . . . . . . ! ! ! . . . . . . . . ! ! ! . . . . . . . . . . . }+|+! e.1+. . . . . . . 2+! ! I 3+. . . ! ! ! . . . . . . . . . . . ! ! ! . . . . . . . . . . . . . . . . . . . . . . . . ",
". . . . . . . . . . . . . . . . . . . . . . . . + + + . . . . . . . . . . . / + + + 4+. . . . . . 5++ + + .+. . . . . . . + + + . . . . . + + + . . . . . . -+* + + + . . . . . . . . . . . . . . . ! ! ! . . . . . . . . ! ! ! ! ! ! ! ! ! ! ! ! . . 6+! ! 7+. . . . . . . . . 8+! ! 9+. . . ! ! ! . . . . . . . . . . . ! ! ! . . . . . . . . . . . . . . . . . . . . . . . . ",
". . . . . . . . . . . . . . . . . . . . . . . . . . . . . . . . . . . . . . . . . . . . . . . . . . . . . . . . . . . . . . . . . . . . . . . . . . . . . . . . . . . . . . . . . . . . . . . . . . ! ! ! . . . . . . . . ! ! ! ! ! ! ! ! ! ! ! ! . . !+! ! 0+. . . . . . . . . a+! ! !+. . . ! ! ! . . . . . . . . . . . ! ! ! . . . . . . . . . . . . . . . . . . . . . . . . ",
". . . . . . . . . . . . . . . . . . . . . . . . . . . . . . . . . . . . . . . . . . . . . . . . . . . . . . . . . . . . . . . . . . . . . . . . . . . . . . . . . . . . . . . . . . . . . . . . . . . . . . . . . . . . . . . . . . . . . . . . . . . . . . . . . . . . . . . . . . . . . . . . . . . . . . . . . . . . . . . . . . . . . . . . . . . . . . . . . . . . . . . . ",
". . . . . . . . . . . . . . . . . . . . . . . . . . . . . . . . . . . . . . . . . . . . . . . . . . . . . . . . . . . . . . . . . . . . . . . . . . . . . . . . . . . . . . . . . . . . . . . . . . . . . . . . . . . . . . . . . . . . . . . . . . . . . . . . . . . . . . . . . . . . . . . . . . . . . . . . . . . . . . . . . . . . . . . . . . . . . . . . . . . . . . . . ",
". . . . . . . . . . . . . . . . . . . . . . . . . . . . . . . . . . . . . . . . . . . . . . . . . . . . . . . . . . . . . . . . . . . . . . . . . . . . . . . . . . . . . . . . . . . . . . . . . . . . . . . . . . . . . . . . . . . . . . . . . . . . . . . . . . . . . . . . . . . . . . . . . . . . . . . . . . . . . . . . . . . . . . . . . . . . . . . . . . . . . . . . ",
". . . . . . . . . . . . . . . . . . . . . . . . . . . . . . . . . . . . . . . . . . . . . . . . . . . . . . . . . . . . . . . . . . . . . . . . . . . . . . . . . . . . . . . . . . . . . . . . . . . . . . . . . . . . . . . . . . . . . . . . . . . . . . . . . . . . . . . . . . . . . . . . . . . . . . . . . . . . . . . . . . . . . . . . . . . . . . . . . . . . . . . . ",
". . . . . . . . . . . . . . . . . . . . . . . . . . . . . . . . . . . . . . . . . . . . . . . . . . . . . . . . . . . . . . . . . . . . . . . . . . . . . . . . . . . . . . . . . . . . . . . . . . . . . . . . . . . . . . . . . . . . . . . . . . . . . . . . . . . . . . . . . . . . . . . . . . . . . . . . . . . . . . . . . . . . . . . . . . . . . . . . . . . . . . . . ",
". . . . . . . . . . . . . . . . . . . . . . . . . . . . . . . . . . . . . . . . . . . . . . . . . . . . . . . . . . . . . . . . . . . . . . . . . . . . . . . . . . . . . . . . . . . . . . . . . . . . . . . . . . . . . . . . . . . . . . . . . . . . . . . . . . . . . . . . . . . . . . . . . . . . . . . . . . . . . . . . . . . . . . . . . . . . . . . . . . . . . . . . "};
